<svg xmlns="http://www.w3.org/2000/svg" xmlns:xlink="http://www.w3.org/1999/xlink" xml:space="preserve" version="1.1" style="shape-rendering:geometricPrecision;text-rendering:geometricPrecision;image-rendering:optimizeQuality;" viewBox="0 0 60000 75000" x="0px" y="0px" fill-rule="evenodd" clip-rule="evenodd"><defs><style type="text/css">
   
    .fil0 {fill:black;fill-rule:nonzero}
   
  </style></defs><g><path class="fil0" d="M45603.2 14976.91c-872.29,780.38 -1697.73,1559.88 -2481.6,2338.83l1605.01 123.29c472.28,-3.24 756.4,249.6 888.43,611.4 100.79,276.21 93.22,617.06 1.34,928.58 -91.36,309.79 -269.99,604.79 -512.01,792.06 -330.94,256.07 -750.91,325.46 -1209.33,28.12l-2043.3 -1184.64c-378.23,398.24 -746.37,796.39 -1105.1,1194.49 -394.76,438.08 -778.15,876.09 -1151.1,1314.07 397.05,-182.82 815.19,-293.71 1254.31,-252.08 458.76,43.49 790.61,218.39 1002.61,462.05 107.69,123.78 183.66,264.83 229.21,415.97 43.58,144.63 57.31,298.43 42.51,454.58 -33.29,351.11 -215.27,707.55 -528.86,980.37 -791.69,688.77 -2023.15,264.55 -2995.56,-70.43 -40.11,-13.82 -79.76,-27.47 -118.65,-40.81l1172.63 1056.45c337.61,258.42 401.06,595 296.41,925.42 -78.56,248.03 -266.79,481.96 -497.55,649.27 -227.79,165.15 -509.99,273.71 -780.79,274.21 -379.36,0.7 -718.72,-182.19 -879.66,-651l-2.19 -6.65 -491.4 -1336.94c-524.97,692.72 -1029.05,1385.74 -1515.97,2079.28 -583.59,831.22 -1154.63,1634.8 -1715.46,2413.34l1352.18 -324.34c453.5,-153.99 804.72,-0.99 1042.77,304.48 181.16,232.46 278.83,559.88 287.06,885.2 8.16,322.97 -70.85,658.03 -242.86,909.38 -234.99,343.37 -610.07,538.29 -1132.05,401.26l-0.07 0.34 -2476.66 -536.5c-6.9,-1.49 -13.72,-3.16 -20.45,-4.98 -3642.12,4948.57 -6899.8,8851.25 -10427.59,12369.24 3292.23,-797.41 6803.35,-1424.54 10849.03,-1972.25l646.13 -2191.64c119.25,-506.4 454.64,-733.64 851.37,-773.51 284.33,-28.57 594.45,56.33 854.71,207.19 261.78,151.73 486.01,378.84 596.15,633.1 147.6,340.76 113.95,706.29 -227.73,1014.82l-776.13 857.83c837.97,-104.23 1698.85,-205.92 2585.38,-305.72 745.29,-83.91 1497.49,-181.05 2258.3,-294.09l-806.15 -921.84c-3.4,-3.48 -6.78,-7.01 -10.08,-10.64 -316.9,-347.02 -314.57,-712.91 -141.23,-1028.82 121.6,-221.6 338.21,-404.85 577.58,-518.55 240.48,-114.22 517.07,-163.63 756.69,-116.75 327.3,64.05 581.77,273.19 641.67,678.32l289.61 1218.72c157.21,-923.17 368.77,-2061.66 1265.38,-2393.81 363.63,-134.7 736.66,-124.34 1038.68,5.31 134.92,57.91 256.29,139.43 357.95,242.57 103.88,105.43 186.01,231.91 239.86,377.32 105.14,283.8 100.47,633.83 -68.42,1027.27 -140.97,328.36 -368.35,591.25 -638.91,812.82 463.04,-97.78 929.93,-202.4 1401.02,-314.4 465.99,-110.79 935.9,-228.75 1410.06,-354.41l-53.36 -2101.2 -0.81 -8.5c-43.5,-520.45 206.25,-840.74 572.44,-1000.87 262.6,-114.84 583.91,-129.49 877.45,-65.94 295.67,64.01 578.95,211.48 762.16,420.01 240.53,273.76 321.59,624.45 104.8,1015.31l-569.79 1264.51c1024.91,-305.61 2070.52,-648.38 3139.86,-1033.19l-645.32 -274.95c-430.51,-175.82 -585.59,-504.22 -566.87,-861.37 13.27,-253.06 128.34,-512.03 293.88,-717.64 166.92,-207.33 395.31,-372.2 632.97,-434.46 318.5,-83.43 634.77,-7.39 863.92,324.36l799.42 982.91c-259.68,-900.14 -565.98,-2019.7 97.09,-2708.27 269.75,-280.12 611.07,-433.31 940.15,-447.8 147.65,-6.51 291.8,13.76 425.95,61.69 137.74,49.22 266.18,127.57 378.78,235.99 218.73,210.65 367.12,528.75 386,957.3 37.18,845.16 -524.95,1572.17 -1024.45,2218.18l-19.14 24.76c87.37,5.24 178.24,9.85 270.56,14.52 816.43,41.3 1735.26,87.8 2353.46,666.87 254.58,238.49 396.64,485.7 449.45,726.71 39.04,178.14 28.12,351.32 -23.94,515.08 -49.78,156.57 -135.93,297.61 -250.48,419.9 -212.83,227.2 -530.3,394.54 -888.7,473.08 -1002.79,219.77 -1656.41,-766.88 -2168,-1608.98l209.76 1157.64c111.53,397.68 -38.05,693.37 -314.09,884.6 -200.64,138.98 -473.38,204.59 -738.82,196.4 -264.99,-8.18 -537.09,-89.3 -737.58,-243.72 -283.54,-218.39 -432.1,-549.86 -285.45,-990.72l-0.48 -0.15 314.76 -996.35c-1262.7,466.26 -2491.65,874.28 -3691.74,1231.74l1080.52 950c362.01,266.59 433.78,621.17 327.35,971.9 -80.23,264.41 -277.38,515.45 -520.71,696.41 -241.1,179.3 -539.88,298.85 -826.73,302.86 -398.95,5.58 -758.28,-182.81 -933.88,-674.75l-3.25 -9.47 -753.18 -1777.26c-501.26,133.48 -997.69,258.44 -1489.64,375.39 -824.51,196.02 -1637.05,369.79 -2439.34,524.11 666.06,368.02 1365.25,798.47 1644.13,1520.5 154.42,399.84 146.1,750.33 30.36,1030.55 -59.57,144.23 -146.1,267.66 -253.14,368.54 -104.38,98.37 -228.16,174.86 -365.09,227.74 -307.02,118.56 -680.69,115.13 -1039.63,-33.13 -884.37,-365.29 -1052.85,-1513.26 -1175.84,-2441.88l-334.87 1208.88c-73.81,403.37 -336.39,603.29 -666.89,655.38 -242.31,38.2 -516.72,-20.91 -751.63,-143.32 -233.28,-121.56 -442.3,-313 -556.58,-540.82 -160.36,-319.66 -150.18,-682.51 173.17,-1015.76l-0.11 -0.1 322.26 -342.15c-620.03,87.5 -1234.96,164.92 -1845.63,233.67 -837.43,94.28 -1651.82,190.21 -2445.44,288.4l853.01 670.24c378.33,246.55 470.28,597.07 383.32,953.34 -65.46,268.2 -248.68,529.82 -482.06,724.28 -231.88,193.2 -523.72,329.6 -808.74,349.36 -394.25,27.31 -760.43,-138.86 -964.06,-613.64l-900.7 -1836.09c-4628.22,622.46 -8549,1346.89 -12236.12,2309.64 -123.07,117.97 -246.52,235.59 -370.41,352.85 -3621.73,3427.76 -7599.35,6554.99 -12591.66,10047.43 -13.1,10.43 -26.65,19.93 -40.61,28.46 -1961.5,1371.45 -4079.59,2799.45 -6394.13,4324.23 -183.8,120.81 -430.75,69.74 -551.56,-114.06 -120.81,-183.8 -69.74,-430.75 114.06,-551.56 2307.9,-1520.42 4419.13,-2943.73 6373.46,-4310.08 3858.73,-3301.89 6578.58,-5888.88 8548.28,-8309.07 -4604.95,1555.05 -9182.4,3608.65 -14745.22,6452.49 -195.88,100.1 -435.84,22.44 -535.94,-173.44 -100.1,-195.88 -22.44,-435.84 173.44,-535.94 6056.03,-3095.98 10953.54,-5262.63 15979.85,-6870.69 218.92,-298.89 427.11,-596.52 625.07,-893.94 663.64,-1253.65 553.71,-2763.03 484.82,-3708.14 -13.28,-182.35 -25.09,-344.01 -30.6,-512.9 -123.81,-3786.56 81.55,-6349.7 1059.51,-9062.45 902.94,-2504.62 2455.99,-5107.22 5012.32,-8901.57 2.97,-4.61 6.03,-9.13 9.16,-13.59 194.8,-289.09 395.22,-584.85 601.82,-888.27 124.26,-182.08 372.61,-228.95 554.69,-104.69 182.08,124.26 228.95,372.61 104.69,554.69 -203.37,298.68 -400.65,589.78 -592.41,874.29 -314.63,590.24 -672.1,1487.96 -976.13,2366.4 -350.08,1011.55 -627.49,1987.94 -685.97,2434.23 -908.59,6933.64 -1569.9,11242.58 -3567.84,15171.67 -378.22,743.79 -803.63,1472.32 -1286.86,2200.73 -16.95,31.07 -34.31,62.05 -52.11,92.91 47.07,-14.13 94.11,-28.32 141.23,-42.36 740.47,-220.58 1486.22,-429.85 2241.18,-629.11 3903.9,-3762.47 7420.5,-7925.45 11413.57,-13361.69l-1313.71 -1860.91c-335.73,-429 -303.74,-852.82 -78.4,-1204.99 165.82,-259.15 443.29,-463.7 742.39,-581.81 301.86,-119.2 640.77,-157.03 925.29,-81.15 374.59,99.89 653.11,363.04 689.68,839.43l212.51 1268.61c530.29,-737.24 1069.91,-1497.09 1620.93,-2281.92 408.11,-581.27 828.09,-1162.13 1262.08,-1742.74l-580.72 151.66c-5.91,1.98 -11.87,3.85 -17.92,5.57 -477.02,135.6 -821.29,-38.93 -1037.69,-351.32 -152.92,-220.76 -224.29,-514.26 -218.74,-796.7 5.59,-284.67 90.14,-572.53 248.86,-778.57 213.29,-276.89 528.53,-417.49 936.52,-283.69l1529.99 357.89c-33.56,-24.62 -67.7,-49.59 -102.28,-74.87 -830.13,-606.97 -1881.36,-1375.65 -1768.08,-2417.45 45.12,-414.85 233.46,-768.2 501.92,-995.34 118.98,-100.67 253.7,-177.2 399.38,-224.67 148.38,-48.35 306.65,-66.2 469.75,-48.47 322.59,35.09 656.28,207.42 953.18,558.31 563.54,666.1 589.08,1609.5 590.24,2468.31 591.48,-718.94 1209.08,-1437.75 1856.92,-2156.68 378.78,-420.35 767.94,-840.75 1168.23,-1261.27l-1339.9 -1691.5 -6.03 -6.61c-367.92,-412.83 -360.69,-842.04 -153.23,-1209.48 150.93,-267.31 416.56,-486.58 708.77,-621.07 295.37,-135.94 632.12,-192.57 920.55,-132.48 380.85,79.35 674.09,328.61 734.98,806.66l360.28 1602.24c883.98,-878.85 1820.2,-1758.41 2816.13,-2639.14l-1232.49 -68.88 0.02 -0.4c-490.45,-20.12 -762.11,-289.92 -871.46,-650.43 -78.57,-259.04 -57.23,-560.35 34.06,-826.09 92.2,-268.39 260.97,-516.16 475.82,-664.13 286.76,-197.51 628.45,-235.18 974.54,14.28l1351.82 812.28c-24.57,-33.95 -49.64,-68.46 -75.04,-103.43 -604.15,-831.82 -1369.24,-1885.23 -941.62,-2843.82 169.67,-380.35 457.1,-658.68 782.36,-792.74 143.21,-59.02 295.1,-90.42 449.68,-91 155.77,-0.57 311.74,30.92 461.59,97.76 295.66,131.89 560.11,398 735.33,823.13 287.2,696.91 129.37,1466.86 -87.54,2190.21l2336.25 -2230.65 -1192.92 -1809.19 -6.39 -8.34c-331.26,-444.05 -287.17,-871.11 -48.74,-1218.87 172.62,-251.77 457.1,-446.92 761.83,-556.19 306.92,-110.07 646.89,-137.72 927.09,-53.37 370.29,111.48 639.79,382.81 661.78,859.26l93.44 692.15c336.72,-673.97 787.98,-1272.74 1498.81,-1374.31 313.88,-44.84 614.19,-0.24 866.27,113.78l1303.62 -1134.67 -1200.07 -1820.03 -6.39 -8.34c-331.26,-444.06 -287.16,-871.11 -48.74,-1218.86 172.61,-251.76 457.1,-446.93 761.83,-556.2 306.92,-110.07 646.89,-137.72 927.08,-53.37 370.28,111.46 639.75,382.76 661.79,859.17l93.45 692.22c336.72,-673.95 787.98,-1272.71 1498.8,-1374.29 411.96,-58.85 800.54,36.32 1087.38,240.37 127.87,90.96 235.51,202.33 316.88,330.63 83.5,131.67 140.04,281.08 163.42,444.71 45.75,320.17 -38.76,685.62 -305.44,1060.49 -346.23,486.68 -878.96,761.44 -1446.64,954.82l913.97 150.93c478.73,34.15 743.51,312.31 844.45,687.34 76.38,283.75 39.11,622.78 -79.59,925.44 -118.03,300.94 -321.65,579.45 -578.96,744.93 -354.63,228.06 -782.96,259.46 -1217.4,-85.02 -5.45,-4.33 -10.75,-8.77 -15.91,-13.32l-1818.7 -1381.3 -1265.48 1101.45c55.53,108.54 93.86,227.37 112.07,354.84 45.74,320.17 -38.77,685.62 -305.45,1060.49 -346.23,486.67 -878.95,761.43 -1446.63,954.81l913.96 150.93c478.73,34.15 743.51,312.31 844.45,687.34 76.38,283.75 39.11,622.78 -79.59,925.44 -118.03,300.94 -321.65,579.45 -578.96,744.93 -354.63,228.06 -782.96,259.46 -1217.4,-85.02 -5.45,-4.33 -10.75,-8.77 -15.91,-13.32l-1830.97 -1390.61 -2331.23 2225.86c653.41,-167.13 1331.61,-253.31 1945.9,10.6 421.89,181.27 684.1,450.31 812.08,749.07 64.15,149.75 93.07,306.03 90.16,462.48 -2.9,156 -36.33,307.55 -96.99,448.72 -138.65,322.72 -421.75,605.92 -805.85,770.46 -962.63,412.36 -2005.25,-368.85 -2828.54,-985.73 -34.82,-26.09 -69.2,-51.85 -103.06,-77.12l788.95 1358.39c249.41,351.76 207.13,695.54 3.8,981.54 -150.88,212.24 -401.53,377.28 -672.04,465.73 -267.1,87.34 -568.16,104.35 -824.9,22.28 -359.33,-114.86 -625.4,-390.69 -638.22,-881.55l-0.26 0.01 -38.67 -943.78zm-9759.64 27364.56l-1438.75 -1130.48 763.21 1555.8c5.06,9.7 9.78,19.67 14.1,29.93 43.56,103.61 111.24,140.63 180.72,135.82 113.04,-7.83 241.37,-72.4 352.48,-164.98 109.62,-91.34 192.31,-200.41 216.44,-299.28 8.21,-33.67 -3.5,-68.95 -46.34,-97.96 -14.37,-8.61 -28.35,-18.23 -41.86,-28.85zm-1621.4 -2144.6l1228.32 -1357.62c9.74,-10.76 19.94,-20.85 30.53,-30.3l-0.85 -0.95c42.58,-37.83 49.66,-76.42 35.43,-109.27 -40.05,-92.45 -140.41,-185.95 -264.89,-258.1 -126,-73.03 -263.91,-115.37 -376.59,-104.05 -67.47,6.78 -126.67,54.74 -152.26,164.71 -3.29,14.11 -7.3,27.87 -11.96,41.25l-487.73 1654.33zm17688.05 -3926.73l-722.62 -888.49c-11.58,-14.25 -21.99,-29.05 -31.29,-44.3 -3.59,-3.9 -6.43,-5.24 -8.51,-4.7 -67.29,17.63 -144.43,79.79 -211.09,162.58 -68.04,84.52 -114.72,178.88 -118.88,258.26 -1.58,30.19 19.04,60.95 74.68,83.25l7.77 3.23 0.04 -0.11 1009.9 430.28zm1424.81 -769.65c369.54,-485.42 728.63,-1011.93 707.2,-1499.16 -9.01,-204.7 -63.44,-340.79 -142.24,-416.68 -26.99,-25.99 -59.07,-45.24 -94.42,-57.87 -38.92,-13.9 -80.49,-19.79 -122.81,-17.93 -131.29,5.78 -275.78,75.53 -399.53,204.04 -324.9,337.4 -139.35,1113.62 51.8,1787.6zm-367.1 3240.64l-203.87 -1125.1 -330.35 1045.71 -0.53 -0.17 -2.59 7.99c-19.41,57.16 -9.7,92.87 14.05,111.17 63.24,48.71 164.65,74.79 271.96,78.1 106.85,3.3 205.32,-15.26 263.82,-55.78 1.32,-0.91 0.72,-6.8 -3.11,-19.73l0.52 -0.15c-4,-13.68 -7.33,-27.7 -9.9,-42.04zm2904.73 -1268.59c-362.54,-339.6 -1013.93,-405.5 -1633.5,-440.21 377.1,618.65 838.75,1313.1 1297.95,1212.46 203.18,-44.53 373.47,-129.04 476.2,-238.7 35.48,-37.87 60.49,-76.29 72.36,-113.64 9.59,-30.19 10.86,-65.52 2.06,-105.7 -19.47,-88.88 -86.81,-194.05 -215.07,-314.21zm-7014.83 2743.82l-1373.53 -1207.62 666.86 1573.58c8.66,16.5 16.3,33.79 22.74,51.85 38.04,106.58 102.86,147.58 171.38,146.63 112.13,-1.56 243.96,-59.48 361.11,-146.6 114.9,-85.45 203.73,-189.89 233.21,-287.05 9.71,-32.01 0.38,-66.84 -38.91,-97.9 -14.81,-9.86 -29.14,-20.81 -42.86,-32.89zm-1670.5 -2267.45l751.65 -1668.1c8,-17.76 17.18,-34.63 27.33,-50.61 20.6,-42.83 13.98,-77.58 -8.04,-102.64 -66.17,-75.31 -190.24,-133.3 -330.92,-163.75 -142.79,-30.91 -286.95,-29.09 -389.93,15.94 -62.15,27.18 -103.75,91.14 -94.32,203.99 1.51,18.36 1.74,36.53 0.79,54.42l43.44 1710.75zm-6600.01 1068.42l-264.55 -1113.26c-3.59,-15.14 -6.23,-30.27 -8.03,-45.36 -1.38,-10.31 -2.95,-14.7 -4.37,-14.98 -69.75,-13.64 -166.96,8.66 -262.95,54.25 -97.08,46.11 -179.66,110.82 -218.2,181.05 -14.28,26.03 -8.79,62.43 31.85,106.94 7.07,7.77 13.76,15.74 20.11,23.89l706.14 807.47zm1619.91 -74.66c543.52,-276.51 1095.24,-594.35 1286.61,-1040.12 81.14,-189.02 91.17,-336.19 52.8,-439.77 -13.45,-36.32 -33.52,-67.47 -58.62,-92.94 -27.34,-27.74 -61.87,-50.48 -101.69,-67.57 -121.42,-52.12 -282.82,-52.06 -451.18,10.31 -437.4,162.04 -607.35,940.65 -727.92,1630.09zm-1740.18 2761.52l305.75 -1103.75 -752.29 798.72 -0.13 -0.12 -6.12 6.37c-42.35,43.07 -49.08,79.54 -35.57,106.47 34.98,69.74 115.79,137.13 212.84,187.7 95.41,49.71 191.92,76.09 260.99,65.2 1.29,-0.2 3.07,-5.55 5.16,-18.4l0.12 0.02c2.3,-14.07 5.37,-28.16 9.25,-42.21zm3168.69 119.51c-175.79,-455.14 -715.9,-793.4 -1248.94,-1089.82 95.1,694.22 236.23,1480.05 668.32,1658.52 165.39,68.31 326.15,74.31 449.01,26.87 40.46,-15.62 76.34,-37.56 105.71,-65.24 26.7,-25.17 48.1,-55.48 62.52,-90.4 41.95,-101.58 37.31,-248.5 -36.62,-439.93zm-25872.05 2789.02c-999.29,1336.13 -2209.89,2698.69 -3696.86,4179.61 2012.62,-1576.64 3858.88,-3137.38 5611.44,-4755.67 -258.82,73.96 -516.79,149.26 -774.11,225.92 -381.4,113.62 -761.34,230.34 -1140.47,350.14zm1470.81 -3875.3c1885.34,-3781.95 2531.09,-8009.7 3416.5,-14766.53 42.14,-321.61 181.02,-874.57 374,-1513.65 -1340.94,2149.59 -2257.37,3888.13 -2861.55,5564.04 -937.22,2599.73 -1133.13,5083.36 -1012.63,8768.69 3.66,112.15 16.34,285.84 30.6,481.64 29.87,409.73 66.7,915.21 53.08,1465.81zm13593.56 -11911.4l23.23 -31.9 -345.65 -2063.45c-2.84,-17.06 -4.56,-34.06 -5.2,-50.9 -6.49,-76.18 -45.43,-116.79 -97.2,-130.59 -116.26,-31 -274.43,-7.78 -428.41,53.03 -156.74,61.89 -294,156.35 -364.27,266.17 -49.39,77.19 -50.15,177.66 39.88,290.67 4.89,6.16 9.56,12.42 14.03,18.77l1163.59 1648.2zm2796.07 95.88l-2118.1 508.06 2036.9 441.24 -0.18 0.84c7.35,1.6 14.71,3.38 22.05,5.41 138.69,38.58 230.53,-1.23 282.11,-76.59 75.37,-110.13 109.57,-273.65 105.36,-440.62 -4.16,-164.62 -44.49,-318.63 -118.3,-413.34 -34.78,-44.63 -90.56,-65.14 -167.65,-37.5 -13.68,4.85 -27.74,9.06 -42.19,12.5zm19546.72 -24236.3c8.97,-19.18 18.09,-39.12 27.35,-59.78l-274.62 -2034.24c-2.42,-18.02 -3.58,-35.92 -3.58,-53.62 -4.83,-74.39 -42.49,-115.4 -93.63,-130.79 -116.98,-35.21 -275.8,-17.62 -430.2,37.75 -156.61,56.16 -296.14,146.71 -371.21,256.2 -51.78,75.53 -55.91,175.6 29.98,290.74 11.58,15.51 21.82,31.6 30.83,48.12l1085.08 1645.62zm1029.87 -399.67c677.09,-175.88 1390.91,-390.91 1720.05,-853.58 136.67,-192.11 183.22,-356.74 164.82,-485.49 -6.71,-46.99 -23.26,-90.39 -47.8,-129.09 -26.67,-42.06 -62.14,-78.7 -104.38,-108.75 -125.36,-89.18 -307.82,-128.97 -512.38,-99.75 -546.44,78.08 -922.42,937.99 -1220.31,1676.66zm1729.12 1505.45l-1988.65 -328.4 1531.15 1162.9c10.62,6.91 21.02,14.36 31.14,22.41 112.2,88.97 212.23,87.68 289.26,38.14 111.09,-71.44 205.54,-208.35 266.46,-363.67 60.24,-153.6 82.9,-311.79 51.47,-428.56 -14.47,-53.76 -57.49,-93.69 -138.65,-98.13l0.01 -0.1c-13.98,-0.79 -28.06,-2.29 -42.19,-4.59zm-7616.64 3394.81c8.97,-19.18 18.1,-39.13 27.36,-59.79l-274.63 -2034.23c-2.42,-18.02 -3.58,-35.92 -3.58,-53.62 -4.83,-74.39 -42.48,-115.4 -93.61,-130.79 -116.99,-35.22 -275.8,-17.62 -430.21,37.75 -156.62,56.16 -296.14,146.7 -371.21,256.19 -51.79,75.54 -55.9,175.62 29.98,290.75 11.58,15.51 21.82,31.6 30.83,48.12l1085.07 1645.62zm1029.89 -399.67c677.08,-175.88 1390.9,-390.91 1720.04,-853.57 136.67,-192.11 183.22,-356.74 164.83,-485.49 -6.71,-46.99 -23.27,-90.39 -47.81,-129.09 -26.68,-42.06 -62.15,-78.71 -104.39,-108.76 -125.36,-89.18 -307.82,-128.97 -512.37,-99.75 -546.45,78.08 -922.41,938 -1220.3,1676.66zm1729.11 1505.45l-1988.65 -328.4 1531.15 1162.9c10.62,6.91 21.02,14.36 31.14,22.41 112.2,88.97 212.23,87.68 289.26,38.14 111.09,-71.44 205.54,-208.35 266.46,-363.67 60.24,-153.6 82.9,-311.79 51.47,-428.56 -14.47,-53.76 -57.49,-93.69 -138.65,-98.13l0.01 -0.1c-13.98,-0.79 -28.06,-2.29 -42.19,-4.59zm-5978.94 5458.58l-710.3 -1222.97 55.8 1361.85 -0.26 0.01 0.26 9.37c1.65,85.17 35.99,129.27 82.22,144.04 91.34,29.2 215.86,17.46 337.4,-22.28 118.12,-38.62 219.29,-99.04 268.92,-168.85 10.76,-15.13 10.05,-37.2 -10.61,-65.23 -8.32,-11.45 -16.18,-23.41 -23.43,-35.94zm2507.87 -2409.76c-524.27,-225.24 -1245.48,-38.13 -1914.72,163.4 638.73,476.42 1407.91,1016.75 1917.24,798.57 188.36,-80.69 322.93,-209.62 383.97,-351.7 21.74,-50.6 33.64,-99.89 34.49,-145.6 0.84,-45.25 -8.04,-91.66 -27.66,-137.48 -50.59,-118.1 -175.89,-233.77 -393.32,-327.19zm-4066.52 -8.5l-1211.96 -728.24c-15.92,-9.52 -30.92,-20 -45,-31.28 -23.13,-14.47 -42.07,-13.96 -55.91,-4.43 -70.15,48.31 -132.03,148.93 -172.68,267.25 -41.55,120.96 -55.32,244.77 -27.82,335.45 14.23,46.93 58.01,82.28 143.32,85.21l9.36 0.41 0.02 -0.41 1360.67 76.04zm1042.65 -1289.34c211.57,-666.56 409.4,-1385.04 192.52,-1911.29 -89.93,-218.2 -204.34,-345.27 -322.83,-398.13 -44.44,-19.82 -90.61,-29.16 -136.59,-29 -47.16,0.17 -96.75,11.09 -146.56,31.62 -142.42,58.7 -273.32,191.84 -357.36,380.24 -224.65,503.61 303.78,1280.52 770.82,1926.56zm-4698.33 5391.86l1.32 -1.35 -477.57 -2123.81c-3.29,-14.63 -5.71,-29.24 -7.33,-43.8l-0.49 0.05c-9.07,-80.48 -51.48,-121.02 -106.08,-132.39 -117.64,-24.5 -273.85,7.27 -423.67,76.22 -153.02,70.42 -284.96,172.58 -349.39,286.69 -44.86,79.45 -39.89,179.61 56.35,287.6 12.39,13.92 23.59,28.48 33.69,43.54l1273.17 1607.25zm2796.43 801.72l-2172.25 -166.86 1794.8 1040.56c9.21,5.1 18.28,10.59 27.21,16.5 119.72,79.03 219.33,69.12 291.76,13.08 104.4,-80.78 186.62,-225.52 233.89,-385.8 46.77,-158.57 55.68,-318.25 14.28,-431.7 -17.72,-48.56 -59.06,-83.11 -130.26,-85.75 -19.5,1.43 -39.35,1.47 -59.43,-0.03zm-5549.78 6492.04l-1049.68 -945.69 463.78 1261.78c3.12,7.56 6.05,15.23 8.74,23.07 28.04,81.68 74.6,113.59 123.4,113.5 94.63,-0.17 208.79,-49.36 312.03,-124.21 100.26,-72.69 177.88,-161.14 203.81,-243.01 5.07,-16.02 0.75,-33.88 -17.89,-50.94 -15.3,-10.32 -30.08,-21.8 -44.19,-34.5zm1649.28 -3063.78c-564.95,-53.55 -1194.28,345.44 -1770.11,742.55 753.57,257.7 1649.62,535.42 2065.58,173.54 156.25,-135.94 245.64,-299.76 260.1,-452.25 4.89,-51.67 0.25,-102.92 -14.37,-151.46 -12.66,-42.02 -34.76,-82.36 -66.71,-119.09 -85.67,-98.46 -240.52,-171.11 -474.49,-193.29zm-3874.74 1238.97l-1376.56 -322c-16.6,-3.87 -32.71,-8.72 -48.3,-14.48 -28.75,-8.52 -47.92,-2.38 -58.65,11.54 -52.47,68.12 -80.8,182.57 -83.24,306.69 -2.48,126.37 22.95,248.32 78.12,327.96 27.43,39.59 79.83,59.23 162.67,35.68 11.74,-3.34 23.49,-6.09 35.26,-8.32l1290.7 -337.07zm598.77 -1546.63c-2.72,-698.96 -34.39,-1443.33 -402.54,-1878.48 -152.54,-180.29 -299.95,-266.23 -428.18,-280.17 -48.39,-5.26 -95.05,-0.06 -138.49,14.09 -46.13,15.03 -90.25,40.49 -130.64,74.67 -117.71,99.59 -201.57,266.07 -223.78,470.34 -59.8,549.93 681.28,1127.7 1323.63,1599.55z"/></g><text x="0" y="60015" fill="#000000" font-size="5px" font-weight="bold" font-family="'Helvetica Neue', Helvetica, Arial-Unicode, Arial, Sans-serif">Created by Olena Panasovska</text><text x="0" y="60020" fill="#000000" font-size="5px" font-weight="bold" font-family="'Helvetica Neue', Helvetica, Arial-Unicode, Arial, Sans-serif">from the Noun Project</text></svg>